<svg width="12" height="12" viewBox="0 0 12 12" fill="none" xmlns="http://www.w3.org/2000/svg">
<path d="M0.168789 1.00107C-0.0562629 0.776076 -0.0562629 0.401608 0.168789 0.168746C0.401709 -0.0562488 0.768402 -0.0562488 1.00132 0.168746L5.99705 5.17161L11.0012 0.168746C11.2262 -0.0562488 11.6008 -0.0562488 11.8253 0.168746C12.0582 0.401608 12.0582 0.7766 11.8253 1.00107L6.82958 5.99607L11.8253 10.9989C12.0582 11.2239 12.0582 11.5984 11.8253 11.8313C11.6003 12.0562 11.2257 12.0562 11.0012 11.8313L5.99705 6.82839L1.00132 11.8313C0.768402 12.0562 0.401709 12.0562 0.168789 11.8313C-0.0562629 11.5984 -0.0562629 11.2234 0.168789 10.9989L5.16452 5.99607L0.168789 1.00107Z" fill="#FF6161"/>
</svg>
