<svg width="19" height="19" viewBox="0 0 19 19" fill="none" xmlns="http://www.w3.org/2000/svg">
<rect width="19" height="19" rx="9.5" fill="#FF6161"/>
<path d="M5.30312 5.90229C5.14115 5.74036 5.14115 5.47086 5.30312 5.30327C5.47075 5.14134 5.73466 5.14134 5.90229 5.30327L9.4977 8.90382L13.0991 5.30327C13.2611 5.14134 13.5307 5.14134 13.6923 5.30327C13.8599 5.47086 13.8599 5.74074 13.6923 5.90229L10.0969 9.49717L13.6923 13.0977C13.8599 13.2596 13.8599 13.5292 13.6923 13.6967C13.5303 13.8587 13.2607 13.8587 13.0991 13.6967L9.4977 10.0962L5.90229 13.6967C5.73466 13.8587 5.47075 13.8587 5.30312 13.6967C5.14115 13.5292 5.14115 13.2593 5.30312 13.0977L8.89853 9.49717L5.30312 5.90229Z" fill="white"/>
</svg>
