<svg width="9" height="9" viewBox="0 0 9 9" fill="none" xmlns="http://www.w3.org/2000/svg">
<path d="M0.303117 0.902291C0.141148 0.740363 0.141148 0.47086 0.303117 0.30327C0.47075 0.141342 0.734657 0.141342 0.902289 0.30327L4.4977 3.90382L8.09915 0.30327C8.26112 0.141342 8.53069 0.141342 8.69228 0.30327C8.85991 0.47086 8.85991 0.740741 8.69228 0.902291L5.09687 4.49717L8.69228 8.09772C8.85991 8.25965 8.85991 8.52915 8.69228 8.69674C8.53031 8.85867 8.26074 8.85867 8.09915 8.69674L4.4977 5.0962L0.902289 8.69674C0.734657 8.85867 0.47075 8.85867 0.303117 8.69674C0.141148 8.52915 0.141148 8.25927 0.303117 8.09772L3.89853 4.49717L0.303117 0.902291Z" fill="white"/>
</svg>
