<svg width="4" height="8" viewBox="0 0 4 8" fill="none" xmlns="http://www.w3.org/2000/svg">
<path d="M0.108606 3.68784L3.13852 0.127804C3.2086 0.045398 3.30215 0 3.4019 0C3.50165 0 3.5952 0.045398 3.66527 0.127804L3.88841 0.389916C4.0336 0.560711 4.0336 0.838302 3.88841 1.00884L1.34411 3.99834L3.89123 6.99116C3.96131 7.07357 4 7.18342 4 7.30056C4 7.41783 3.96131 7.52768 3.89123 7.61015L3.6681 7.8722C3.59796 7.9546 3.50447 8 3.40472 8C3.30497 8 3.21143 7.9546 3.14135 7.8722L0.108606 4.30891C0.0383612 4.22624 -0.000220505 4.11587 9.11759e-07 3.99854C-0.000220505 3.88075 0.0383612 3.77044 0.108606 3.68784Z" fill="#929292"/>
</svg>
