<svg width="25" height="25" viewBox="0 0 25 25" fill="none" xmlns="http://www.w3.org/2000/svg">
<path d="M24.4091 14.2275C24.1535 14.1634 23.8979 14.2275 23.6742 14.3878C22.8436 15.0932 21.8851 15.6703 20.8308 16.055C19.8403 16.4397 18.7541 16.6321 17.6039 16.6321C15.016 16.6321 12.6518 15.5741 10.9585 13.8749C9.26522 12.1756 8.2109 9.80314 8.2109 7.20621C8.2109 6.11614 8.40259 5.05813 8.72208 4.0963C9.07352 3.07036 9.58471 2.14059 10.2556 1.33907C10.5432 0.986398 10.4793 0.473424 10.1278 0.184876C9.9042 0.0245717 9.64861 -0.0395501 9.39301 0.0245717C6.67735 0.761972 4.31312 2.39708 2.61982 4.57722C0.99042 6.7253 0 9.38635 0 12.3039C0 15.7985 1.40576 18.9726 3.70609 21.2809C6.00642 23.5893 9.16937 25 12.6518 25C15.5911 25 18.3068 23.9741 20.4793 22.2748C22.6838 20.5435 24.2813 18.0749 24.9522 15.2535C25.1119 14.7726 24.8563 14.3237 24.4091 14.2275ZM19.5209 20.9283C17.6678 22.4031 15.3036 23.3008 12.7157 23.3008C9.68056 23.3008 6.93294 22.0504 4.9521 20.0626C2.97126 18.0749 1.72525 15.3176 1.72525 12.2718C1.72525 9.73902 2.55592 7.43064 3.99363 5.5711C4.98405 4.28867 6.23006 3.23066 7.66777 2.49326C7.50802 2.84593 7.34828 3.1986 7.22048 3.58333C6.80514 4.73752 6.61345 5.95584 6.61345 7.23827C6.61345 10.2841 7.85946 13.0734 9.8403 15.0611C11.8211 17.0489 14.6007 18.2993 17.6359 18.2993C18.9777 18.2993 20.2557 18.0749 21.4378 17.626C21.8531 17.4657 22.2685 17.3054 22.6519 17.113C21.8851 18.5878 20.8308 19.9023 19.5209 20.9283Z" fill="black" fill-opacity="0.6"/>
</svg>
