<svg width="4" height="8" viewBox="0 0 4 8" fill="none" xmlns="http://www.w3.org/2000/svg">
<path d="M3.89139 3.68784L0.861476 0.127804C0.791398 0.045398 0.697849 0 0.598101 0C0.498353 0 0.404805 0.045398 0.334726 0.127804L0.111594 0.389916C-0.0335999 0.560711 -0.0335999 0.838302 0.111594 1.00884L2.65589 3.99834L0.108771 6.99116C0.0386925 7.07357 0 7.18342 0 7.30056C0 7.41783 0.0386925 7.52768 0.108771 7.61015L0.331903 7.8722C0.402037 7.9546 0.49553 8 0.595278 8C0.695026 8 0.788575 7.9546 0.858653 7.8722L3.89139 4.30891C3.96164 4.22624 4.00022 4.11587 4 3.99854C4.00022 3.88075 3.96164 3.77044 3.89139 3.68784Z" fill="#929292"/>
</svg>
