<svg width="27" height="27" viewBox="0 0 27 27" fill="none" xmlns="http://www.w3.org/2000/svg">
<path d="M17.8794 8.52064C16.6921 7.33333 15.0159 6.56508 13.2 6.56508C11.3841 6.56508 9.70795 7.29841 8.52065 8.52064C7.33335 9.70794 6.56509 11.3841 6.56509 13.2C6.56509 15.0159 7.33335 16.6921 8.52065 17.8794C9.70795 19.0667 11.3841 19.8349 13.2 19.8349C15.0159 19.8349 16.6921 19.1016 17.8794 17.8794C19.0667 16.6921 19.8349 15.0159 19.8349 13.2C19.8349 11.3841 19.1016 9.70794 17.8794 8.52064ZM16.6222 16.6222C15.7492 17.4952 14.527 18.019 13.2 18.019C11.873 18.019 10.6508 17.4952 9.77779 16.6222C8.90478 15.7492 8.38097 14.527 8.38097 13.2C8.38097 11.873 8.90478 10.6508 9.77779 9.77778C10.6508 8.90476 11.873 8.38095 13.2 8.38095C14.527 8.38095 15.7492 8.90476 16.6222 9.77778C17.4953 10.6508 18.0191 11.873 18.0191 13.2C18.0191 14.527 17.4953 15.7492 16.6222 16.6222Z" fill="white"/>
<path d="M25.4921 12.2921H22.8032C22.3143 12.2921 21.8953 12.7111 21.8953 13.2C21.8953 13.6889 22.3143 14.1079 22.8032 14.1079H25.4921C25.981 14.1079 26.4 13.6889 26.4 13.2C26.4 12.7111 25.981 12.2921 25.4921 12.2921Z" fill="white"/>
<path d="M13.2 21.8952C12.7111 21.8952 12.2921 22.3143 12.2921 22.8032V25.4921C12.2921 25.981 12.7111 26.4 13.2 26.4C13.6889 26.4 14.1079 25.981 14.1079 25.4921V22.8032C14.1079 22.3143 13.6889 21.8952 13.2 21.8952Z" fill="white"/>
<path d="M22.5238 21.2667L20.6032 19.346C20.2889 18.9968 19.6952 18.9968 19.346 19.346C18.9968 19.6952 18.9968 20.254 19.346 20.6032L21.2667 22.5238C21.6159 22.873 22.1746 22.873 22.5238 22.5238C22.873 22.1746 22.873 21.6159 22.5238 21.2667Z" fill="white"/>
<path d="M13.2 0C12.7111 0 12.2921 0.419048 12.2921 0.907937V3.59683C12.2921 4.08572 12.7111 4.50476 13.2 4.50476C13.6889 4.50476 14.1079 4.08572 14.1079 3.59683V0.907937C14.1079 0.419048 13.6889 0 13.2 0Z" fill="white"/>
<path d="M22.5587 3.87619C22.2095 3.52698 21.6508 3.52698 21.3016 3.87619L19.381 5.79682C19.0317 6.14603 19.0317 6.70476 19.381 7.05397C19.6952 7.40317 20.2889 7.40317 20.6381 7.05397L22.5587 5.13333C22.9079 4.78412 22.9079 4.22539 22.5587 3.87619Z" fill="white"/>
<path d="M3.59683 12.2921H0.907937C0.419048 12.2921 0 12.7111 0 13.2C0 13.6889 0.384127 14.1079 0.907937 14.1079H3.59683C4.08572 14.1079 4.50476 13.6889 4.50476 13.2C4.50476 12.7111 4.08572 12.2921 3.59683 12.2921Z" fill="white"/>
<path d="M7.01903 19.346C6.70474 18.9968 6.11109 18.9968 5.76189 19.346L3.84125 21.2667C3.49204 21.6159 3.49204 22.1746 3.84125 22.5238C4.19046 22.873 4.74919 22.873 5.09839 22.5238L7.01903 20.6032C7.36824 20.254 7.36824 19.6952 7.01903 19.346Z" fill="white"/>
<path d="M7.01903 5.79682L5.09839 3.87619C4.74919 3.52698 4.19046 3.52698 3.84125 3.87619C3.49204 4.22539 3.49204 4.78412 3.84125 5.13333L5.76189 7.05397C6.11109 7.40317 6.66982 7.40317 7.01903 7.05397C7.36824 6.70476 7.36824 6.14603 7.01903 5.79682Z" fill="white"/>
</svg>
